<svg width="20" height="20" viewBox="0 0 20 20" fill="none" xmlns="http://www.w3.org/2000/svg">
<path d="M17.0069 0.516357H2.70077C1.3854 0.516357 0.316406 1.58609 0.316406 2.90237V17.2185C0.316406 18.534 1.3854 19.6045 2.70077 19.6045H17.0069C18.3215 19.6045 19.3913 18.534 19.3913 17.2185V2.90237C19.3913 1.58609 18.3215 0.516357 17.0069 0.516357Z" fill="#3B5999"/>
<path d="M13.4303 10.0607V7.67471C13.4303 7.01617 13.9644 7.07821 14.6225 7.07821H15.8147V4.0957H13.4303C11.4544 4.0957 9.85374 5.69751 9.85374 7.67471V10.0607H7.46936V13.0432H9.85374V19.6047H13.4303V13.0432H15.2186L16.4108 10.0607H13.4303Z" fill="white"/>
</svg>
