<svg width="20" height="20" viewBox="0 0 20 20" fill="none" xmlns="http://www.w3.org/2000/svg">
<path d="M10.3325 19.6042C15.5999 19.6042 19.87 15.3313 19.87 10.0603C19.87 4.78933 15.5999 0.516357 10.3325 0.516357C5.06512 0.516357 0.795044 4.78933 0.795044 10.0603C0.795044 15.3313 5.06512 19.6042 10.3325 19.6042Z" fill="#273B7A"/>
<path d="M19.6552 12.0798L13.8238 6.24463L8.96217 6.63294L6.47876 8.90142L6.79745 13.8361L12.3189 19.3962C15.9814 18.6197 18.8671 15.7402 19.6552 12.0798Z" fill="#121149"/>
<path d="M10.5409 9.18324V11.0122H13.3991C12.9938 12.3214 11.7745 13.2724 10.333 13.2724C8.56043 13.2724 7.12342 11.8344 7.12342 10.0605C7.12335 8.2867 8.56029 6.84867 10.3329 6.84867C11.1613 6.84867 11.9139 7.16546 12.4833 7.68104L13.8244 6.24424C12.9044 5.40094 11.6789 4.88599 10.3329 4.88599C7.4771 4.88599 5.16199 7.20267 5.16199 10.0605C5.16199 12.9184 7.4771 15.2351 10.3329 15.2351C13.1887 15.2351 15.5038 12.9184 15.5038 10.0605C15.5038 9.76117 15.4762 9.46853 15.427 9.18324H10.5409Z" fill="#4285F4"/>
<path d="M10.3324 6.84889C11.1608 6.84889 11.9134 7.1657 12.4829 7.68133L13.824 6.24441C12.904 5.40098 11.6784 4.88599 10.3324 4.88599C8.35187 4.88599 6.63229 6.00068 5.76367 7.63685L7.34175 8.90161C7.80679 7.70139 8.96877 6.84889 10.3324 6.84889Z" fill="#EA4335"/>
<path d="M7.12328 10.0614C7.12328 9.65215 7.20271 9.26224 7.34222 8.90229L5.76428 7.6377C5.38037 8.36083 5.16199 9.18548 5.16199 10.0615C5.16199 10.9415 5.3822 11.7698 5.76942 12.4954L7.33801 11.209C7.20137 10.8521 7.12328 10.4663 7.12328 10.0614Z" fill="#FBBC05"/>
<path d="M12.1175 12.7289C11.607 13.0716 10.9941 13.2733 10.3332 13.2733C8.9652 13.2733 7.80031 12.4153 7.33833 11.209L5.76965 12.4954C6.64004 14.1261 8.35677 15.2361 10.3331 15.2361C11.6166 15.2361 12.7899 14.7671 13.6938 13.9923L12.1175 12.7289Z" fill="#34A853"/>
<path d="M15.5034 10.0604C15.5034 9.76102 15.4758 9.46839 15.4267 9.18311H10.5406V11.012H13.3988C13.1793 11.7209 12.7198 12.3231 12.117 12.7278L13.6933 13.9912C14.8008 13.0421 15.5034 11.6338 15.5034 10.0604Z" fill="#4285F4"/>
</svg>
