<svg width="11" height="16" viewBox="0 0 11 16" fill="none" xmlns="http://www.w3.org/2000/svg">
<path d="M5.73067 0.681152C2.87555 0.681152 0.55249 2.90436 0.55249 5.63601C0.55249 6.93691 1.14507 8.6669 2.31372 10.7781C3.25226 12.4731 4.33806 14.0058 4.90281 14.7685C4.99824 14.8988 5.12301 15.0048 5.26701 15.0778C5.41101 15.1509 5.57019 15.189 5.73164 15.189C5.89309 15.189 6.05226 15.1509 6.19627 15.0778C6.34027 15.0048 6.46504 14.8988 6.56047 14.7685C7.12424 14.0058 8.21101 12.4731 9.14956 10.7781C10.3163 8.66755 10.9088 6.93756 10.9088 5.63601C10.9088 2.90436 8.58578 0.681152 5.73067 0.681152ZM5.73067 7.93533C5.32101 7.93533 4.92055 7.81377 4.57993 7.58603C4.23931 7.35829 3.97383 7.03459 3.81706 6.65587C3.66029 6.27714 3.61927 5.86041 3.69919 5.45836C3.77912 5.05631 3.97638 4.687 4.26606 4.39714C4.55573 4.10728 4.9248 3.90988 5.32658 3.82991C5.72837 3.74994 6.14483 3.79098 6.52331 3.94785C6.90178 4.10473 7.22527 4.37038 7.45287 4.71122C7.68046 5.05206 7.80194 5.45278 7.80194 5.86271C7.80134 6.41222 7.58292 6.93905 7.19461 7.32761C6.80631 7.71617 6.27982 7.93473 5.73067 7.93533Z" fill="#FC1200"/>
</svg>
