<svg width="21" height="20" viewBox="0 0 21 20" fill="none" xmlns="http://www.w3.org/2000/svg">
<path d="M10.0735 1.26008C10.2164 0.820427 10.8383 0.820428 10.9812 1.26008L12.9915 7.44729C13.0554 7.64391 13.2387 7.77703 13.4454 7.77703H19.951C20.4133 7.77703 20.6055 8.36858 20.2315 8.6403L14.9683 12.4642C14.8011 12.5857 14.7311 12.8011 14.795 12.9977L16.8053 19.1849C16.9482 19.6246 16.445 19.9902 16.071 19.7185L10.8078 15.8946C10.6406 15.7731 10.4141 15.7731 10.2469 15.8946L4.9837 19.7185C4.60971 19.9902 4.10651 19.6246 4.24936 19.1849L6.25971 12.9977C6.32359 12.8011 6.25361 12.5857 6.08635 12.4642L0.823195 8.6403C0.449204 8.36858 0.64141 7.77703 1.10369 7.77703H7.60931C7.81604 7.77703 7.99927 7.64391 8.06316 7.44729L10.0735 1.26008Z" fill="#FFC700"/>
</svg>
